<!-- icon666.com - MILLIONS OF FREE VECTOR ICONS --><svg id="Layer_1" enable-background="new 0 0 64 64" viewBox="0 0 64 64" xmlns="http://www.w3.org/2000/svg"><g><path d="m13.402 15.904h5.15v-15h-5.15c-4.142 0-7.5 3.358-7.5 7.5s3.358 7.5 7.5 7.5z"></path><path d="m58.098 55.6c0 4.14-3.36 7.5-7.5 7.5h-5.15v-15h5.15c4.14 0 7.5 3.35 7.5 7.5z"></path><path d="m26.508 48.1h13.03v15h-22.18c-4.55 0-8.61-2.72-10.36-6.92-1.74-4.21-.78-9 2.43-12.22l28.06-28.06h-13.03v-15h22.18c4.55 0 8.61 2.72 10.36 6.92 1.74 4.21.78 9-2.43 12.22z"></path></g></svg>